<?xml version="1.0" encoding="UTF-8"?>
<!DOCTYPE svg PUBLIC "-//W3C//DTD SVG 1.1//EN" "http://www.w3.org/Graphics/SVG/1.1/DTD/svg11.dtd">
<!-- Creator: CorelDRAW X6 -->
<svg xmlns="http://www.w3.org/2000/svg" xml:space="preserve" width="2480px" height="4500px" version="1.1" style="shape-rendering:geometricPrecision; text-rendering:geometricPrecision; image-rendering:optimizeQuality; fill-rule:evenodd; clip-rule:evenodd"
viewBox="0 0 2480 4499"
 xmlns:xlink="http://www.w3.org/1999/xlink">
 <defs>
  <style type="text/css">
   <![CDATA[
    .fil1 {fill:white}
    .fil0 {fill:white;fill-rule:nonzero}
   ]]>
  </style>
 </defs>
 <g id="Layer_x0020_1">
  <metadata id="CorelCorpID_0Corel-Layer"/>
  <g id="_1241822704">
   <path class="fil0" d="M847 1842c7,0 14,1 19,3 5,2 9,4 13,7 3,3 6,7 7,11 2,4 2,9 2,15 0,6 -1,11 -2,15 -2,5 -4,9 -7,12 -3,3 -8,6 -13,8 -5,2 -12,3 -19,3 -4,0 -8,0 -12,0 -3,0 -7,-1 -11,-1l0 -70c4,0 8,-1 12,-1 4,0 8,-1 12,-1zm-1 54c0,0 1,0 1,0 1,0 1,0 3,0 5,0 9,-1 11,-4 2,-3 4,-8 4,-14 0,-6 -1,-10 -4,-13 -2,-3 -6,-4 -10,-4 -1,0 -2,0 -3,0 -1,0 -2,0 -2,0l0 34zm70 -10c1,4 3,6 5,8 2,2 6,2 10,2 3,0 6,0 9,-1 3,-1 6,-2 10,-3 1,2 2,5 3,8 1,3 1,7 2,10 -8,3 -16,4 -25,4 -7,0 -12,-1 -17,-3 -5,-2 -8,-4 -11,-8 -3,-3 -5,-7 -7,-11 -1,-4 -2,-9 -2,-14 0,-5 1,-10 2,-14 1,-5 4,-8 7,-12 3,-3 7,-6 11,-8 4,-2 9,-3 15,-3 5,0 9,1 13,2 4,2 7,4 10,7 3,3 5,6 6,10 1,4 2,8 2,13 0,2 0,5 0,7 0,2 0,4 -1,5l-41 0zm11 -27c-3,0 -5,1 -7,3 -2,2 -3,5 -4,8l22 0c0,-3 -1,-6 -3,-8 -2,-2 -4,-3 -8,-3zm73 11c3,1 5,2 7,3 2,1 4,2 6,4 2,2 3,4 4,6 1,2 1,5 1,9 0,3 -1,7 -2,10 -1,3 -3,6 -6,8 -3,2 -6,4 -10,5 -4,1 -9,2 -14,2 -4,0 -8,0 -12,-1 -4,-1 -8,-2 -12,-3 0,-6 2,-12 5,-19 3,1 6,2 9,3 3,1 6,1 9,1 1,0 2,0 3,0 1,0 2,0 3,-1 1,0 2,-1 2,-1 1,-1 1,-1 1,-2 0,-1 -1,-2 -2,-3 -1,-1 -3,-1 -4,-2l-9 -3c-5,-1 -9,-4 -12,-7 -3,-3 -5,-8 -5,-13 0,-4 1,-7 2,-10 1,-3 3,-5 6,-7 3,-2 6,-4 9,-5 4,-1 8,-2 12,-2 3,0 7,0 11,1 4,1 8,2 12,3 0,3 -1,6 -2,9 -1,3 -2,6 -3,9 -2,-1 -5,-2 -9,-3 -3,-1 -7,-1 -9,-1 -4,0 -6,1 -6,4 0,1 0,2 1,2 1,1 2,1 3,1l9 2zm49 44c-2,0 -4,1 -6,1 -2,0 -4,0 -5,0 -2,0 -3,0 -5,0 -2,0 -4,0 -6,-1l0 -70c2,0 4,-1 6,-1 2,0 4,0 6,0 2,0 4,0 6,0 2,0 4,0 6,1l0 70zm44 2c-7,0 -12,-1 -17,-3 -5,-2 -8,-5 -11,-8 -3,-3 -5,-7 -6,-12 -1,-5 -2,-9 -2,-14 0,-5 1,-10 2,-14 2,-4 4,-8 7,-12 3,-3 7,-6 12,-8 5,-2 10,-3 16,-3 3,0 7,0 10,1 4,1 8,2 12,4 0,2 0,3 -1,4 0,1 -1,3 -1,4 0,1 -1,3 -1,4 -1,2 -1,3 -2,5 -3,-1 -6,-2 -9,-3 -3,-1 -5,-1 -7,-1 -3,0 -6,0 -8,1 -2,1 -4,2 -5,4 -1,2 -2,3 -3,5 -1,2 -1,4 -1,6 0,6 1,10 4,13 3,3 6,4 12,4l2 0 0 -20c2,0 4,-1 6,-1 2,0 3,0 5,0 3,0 7,0 11,1l0 34c-3,1 -6,2 -11,3 -5,1 -10,2 -16,2zm65 -73c4,0 8,0 12,1 4,1 8,2 11,4 3,2 6,5 8,9 2,4 3,9 3,16l0 41c-2,0 -4,1 -6,1 -2,0 -4,0 -5,0 -2,0 -3,0 -5,0 -2,0 -4,0 -6,-1l0 -38c0,-5 -1,-8 -3,-10 -2,-2 -5,-3 -8,-3 -1,0 -2,0 -3,0 -1,0 -2,0 -2,1l0 51c-2,0 -4,1 -6,1 -2,0 -4,0 -5,0 -2,0 -3,0 -5,0 -2,0 -4,0 -6,-1l0 -67c3,-1 7,-2 12,-3 5,-1 10,-2 17,-2zm78 28c3,1 5,2 7,3 2,1 4,2 6,4 2,2 3,4 4,6 1,2 1,5 1,9 0,3 -1,7 -2,10 -1,3 -3,6 -6,8 -3,2 -6,4 -10,5 -4,1 -9,2 -14,2 -4,0 -8,0 -12,-1 -4,-1 -8,-2 -12,-3 0,-6 2,-12 5,-19 3,1 6,2 9,3 3,1 6,1 9,1 1,0 2,0 3,0 1,0 2,0 3,-1 1,0 2,-1 2,-1 1,-1 1,-1 1,-2 0,-1 -1,-2 -2,-3 -1,-1 -3,-1 -4,-2l-9 -3c-5,-1 -9,-4 -12,-7 -3,-3 -5,-8 -5,-13 0,-4 1,-7 2,-10 1,-3 3,-5 6,-7 3,-2 6,-4 9,-5 4,-1 8,-2 12,-2 3,0 7,0 11,1 4,1 8,2 12,3 0,3 -1,6 -2,9 -1,3 -2,6 -3,9 -2,-1 -5,-2 -9,-3 -3,-1 -7,-1 -9,-1 -4,0 -6,1 -6,4 0,1 0,2 1,2 1,1 2,1 3,1l9 2z"/>
   <path class="fil0" d="M1259 1879c0,-5 1,-10 2,-15 2,-5 4,-8 7,-12 3,-3 7,-6 11,-8 4,-2 9,-3 15,-3 2,0 4,0 5,0 2,0 3,0 5,1 2,0 3,1 5,1 2,1 4,1 6,2 0,3 0,6 -1,9 -1,3 -2,6 -3,9 -2,-1 -3,-1 -4,-1 -1,0 -2,-1 -3,-1 -1,0 -2,0 -3,0 -1,0 -2,0 -3,0 -4,0 -8,1 -11,4 -3,3 -4,7 -4,13 0,3 0,6 1,8 1,2 2,4 3,5 1,1 3,2 5,3 2,1 4,1 6,1 3,0 5,0 7,-1 2,0 4,-1 7,-2 2,2 3,5 4,8 1,3 1,6 1,10 -4,2 -8,3 -11,3 -3,0 -7,1 -10,1 -6,0 -11,-1 -15,-3 -4,-2 -8,-4 -11,-7 -3,-3 -5,-7 -7,-12 -2,-4 -2,-10 -2,-15zm60 0c0,-6 1,-11 2,-15 1,-5 4,-8 7,-12 3,-3 7,-6 11,-8 4,-2 9,-3 15,-3 6,0 11,1 15,3 4,2 8,4 11,8 3,3 5,7 7,12 1,5 2,10 2,15 0,5 -1,10 -2,15 -1,4 -4,8 -7,12 -3,3 -7,6 -11,7 -4,2 -9,3 -15,3 -6,0 -11,-1 -15,-3 -4,-2 -8,-4 -11,-7 -3,-3 -5,-7 -7,-12 -1,-4 -2,-9 -2,-15zm47 0c0,-6 -1,-10 -3,-13 -2,-3 -5,-5 -9,-5 -4,0 -7,2 -9,5 -2,3 -3,7 -3,13 0,6 1,10 3,13 2,3 5,5 9,5 4,0 7,-2 9,-5 2,-3 3,-7 3,-13zm28 0c0,-6 1,-11 2,-15 1,-5 4,-8 7,-12 3,-3 7,-6 11,-8 4,-2 9,-3 15,-3 6,0 11,1 15,3 4,2 8,4 11,8 3,3 5,7 7,12 1,5 2,10 2,15 0,5 -1,10 -2,15 -1,4 -4,8 -7,12 -3,3 -7,6 -11,7 -4,2 -9,3 -15,3 -6,0 -11,-1 -15,-3 -4,-2 -8,-4 -11,-7 -3,-3 -5,-7 -7,-12 -1,-4 -2,-9 -2,-15zm47 0c0,-6 -1,-10 -3,-13 -2,-3 -5,-5 -9,-5 -4,0 -7,2 -9,5 -2,3 -3,7 -3,13 0,6 1,10 3,13 2,3 5,5 9,5 4,0 7,-2 9,-5 2,-3 3,-7 3,-13zm31 -35c2,0 4,-1 6,-1 2,0 4,0 6,0 2,0 4,0 6,0 2,0 4,0 6,1l0 70c-2,0 -4,1 -6,1 -2,0 -4,0 -5,0 -2,0 -3,0 -5,0 -2,0 -4,0 -6,-1l0 -70zm41 0c2,0 4,-1 6,-1 2,0 4,0 6,0 2,0 5,0 7,0 2,0 4,0 6,1l-17 33 19 37c-2,0 -4,1 -6,1 -2,0 -5,0 -6,0 -2,0 -5,0 -7,0 -2,0 -4,0 -5,-1l-18 -36 16 -33z"/>
   <path class="fil1" d="M1338 1774l0 55c0,6 10,9 16,3 24,-25 66,-16 92,-9l0 -49c52,-14 44,-76 7,-88 -20,-6 -7,-1 -19,-13 -27,-27 -64,-26 -87,-2 -5,5 -7,11 -15,15 -9,3 -14,7 -19,13 -17,17 -21,61 26,75zm88 -73l0 26c0,3 -3,6 -6,6l-1 0c-3,0 -6,-3 -6,-6l0 -31c0,0 0,-1 0,-1 0,-6 7,-6 13,-11 -15,-21 -57,-28 -73,1 12,2 21,5 15,17 -14,2 -21,-11 -40,0 -23,13 -17,53 12,58 12,2 35,0 48,0 -3,-4 -7,-5 -3,-12 7,-8 11,7 41,11 19,3 31,-3 38,-15 8,-14 3,-31 -6,-40 -12,-12 -22,-7 -33,-4zm-75 118c6,-4 12,-7 19,-10 3,-7 1,-27 1,-35l-19 0 0 45zm33 -14c6,-1 11,-2 17,-2l0 -29 -17 0 0 31zm30 -3c6,0 12,0 18,1l0 -27c-3,-4 -1,-2 -8,-4 -3,0 -7,-1 -9,-1l0 30z"/>
  </g>
 </g>
</svg>
