<svg xmlns="http://www.w3.org/2000/svg" width="2480" height="4500" viewBox="0 0 2480 4499" shape-rendering="geometricPrecision" text-rendering="geometricPrecision" image-rendering="optimizeQuality" fill="#FFFFFF" fill-rule="evenodd" clip-rule="evenodd"><g id="Layer_x0020_1"><g id="_1241822704"><path class="fil0" d="M847 1842c7 0 14 1 19 3s9 4 13 7c3 3 6 7 7 11 2 4 2 9 2 15s-1 11-2 15c-2 5-4 9-7 12s-8 6-13 8-12 3-19 3h-12c-3 0-7-1-11-1v-70c4 0 8-1 12-1s8-1 12-1zm-1 54h4c5 0 9-1 11-4s4-8 4-14-1-10-4-13c-2-3-6-4-10-4h-5v34zm70-10c1 4 3 6 5 8s6 2 10 2c3 0 6 0 9-1s6-2 10-3c1 2 2 5 3 8s1 7 2 10c-8 3-16 4-25 4-7 0-12-1-17-3s-8-4-11-8c-3-3-5-7-7-11-1-4-2-9-2-14s1-10 2-14c1-5 4-8 7-12 3-3 7-6 11-8s9-3 15-3c5 0 9 1 13 2 4 2 7 4 10 7s5 6 6 10 2 8 2 13v7c0 2 0 4-1 5h-41zm11-27c-3 0-5 1-7 3s-3 5-4 8h22c0-3-1-6-3-8s-4-3-8-3zm73 11c3 1 5 2 7 3s4 2 6 4 3 4 4 6 1 5 1 9c0 3-1 7-2 10s-3 6-6 8-6 4-10 5-9 2-14 2c-4 0-8 0-12-1l-12-3c0-6 2-12 5-19l9 3c3 1 6 1 9 1h3c1 0 2 0 3-1 1 0 2-1 2-1 1-1 1-1 1-2s-1-2-2-3-3-1-4-2l-9-3c-5-1-9-4-12-7s-5-8-5-13c0-4 1-7 2-10s3-5 6-7 6-4 9-5c4-1 8-2 12-2 3 0 7 0 11 1l12 3c0 3-1 6-2 9l-3 9c-2-1-5-2-9-3-3-1-7-1-9-1-4 0-6 1-6 4 0 1 0 2 1 2 1 1 2 1 3 1l9 2zm49 44c-2 0-4 1-6 1h-10c-2 0-4 0-6-1v-70c2 0 4-1 6-1h12c2 0 4 0 6 1v70zm44 2c-7 0-12-1-17-3s-8-5-11-8-5-7-6-12-2-9-2-14 1-10 2-14c2-4 4-8 7-12 3-3 7-6 12-8s10-3 16-3c3 0 7 0 10 1 4 1 8 2 12 4 0 2 0 3-1 4 0 1-1 3-1 4s-1 3-1 4c-1 2-1 3-2 5l-9-3c-3-1-5-1-7-1-3 0-6 0-8 1s-4 2-5 4-2 3-3 5-1 4-1 6c0 6 1 10 4 13s6 4 12 4h2v-20c2 0 4-1 6-1h5c3 0 7 0 11 1v34c-3 1-6 2-11 3s-10 2-16 2zm65-73c4 0 8 0 12 1s8 2 11 4 6 5 8 9 3 9 3 16v41c-2 0-4 1-6 1h-10c-2 0-4 0-6-1v-38c0-5-1-8-3-10s-5-3-8-3h-3c-1 0-2 0-2 1v51c-2 0-4 1-6 1h-10c-2 0-4 0-6-1v-67c3-1 7-2 12-3s10-2 17-2zm78 28c3 1 5 2 7 3s4 2 6 4 3 4 4 6 1 5 1 9c0 3-1 7-2 10s-3 6-6 8-6 4-10 5-9 2-14 2c-4 0-8 0-12-1l-12-3c0-6 2-12 5-19l9 3c3 1 6 1 9 1h3c1 0 2 0 3-1 1 0 2-1 2-1 1-1 1-1 1-2s-1-2-2-3-3-1-4-2l-9-3c-5-1-9-4-12-7s-5-8-5-13c0-4 1-7 2-10s3-5 6-7 6-4 9-5c4-1 8-2 12-2 3 0 7 0 11 1l12 3c0 3-1 6-2 9l-3 9c-2-1-5-2-9-3-3-1-7-1-9-1-4 0-6 1-6 4 0 1 0 2 1 2 1 1 2 1 3 1l9 2zM1259 1879c0-5 1-10 2-15 2-5 4-8 7-12 3-3 7-6 11-8s9-3 15-3h5c2 0 3 0 5 1 2 0 3 1 5 1 2 1 4 1 6 2 0 3 0 6-1 9l-3 9c-2-1-3-1-4-1s-2-1-3-1h-6c-4 0-8 1-11 4s-4 7-4 13c0 3 0 6 1 8s2 4 3 5 3 2 5 3 4 1 6 1c3 0 5 0 7-1 2 0 4-1 7-2 2 2 3 5 4 8s1 6 1 10c-4 2-8 3-11 3s-7 1-10 1c-6 0-11-1-15-3s-8-4-11-7-5-7-7-12c-2-4-2-10-2-15zm60 0c0-6 1-11 2-15 1-5 4-8 7-12 3-3 7-6 11-8s9-3 15-3 11 1 15 3 8 4 11 8c3 3 5 7 7 12 1 5 2 10 2 15s-1 10-2 15c-1 4-4 8-7 12-3 3-7 6-11 7-4 2-9 3-15 3s-11-1-15-3-8-4-11-7-5-7-7-12c-1-4-2-9-2-15zm47 0c0-6-1-10-3-13s-5-5-9-5-7 2-9 5-3 7-3 13 1 10 3 13 5 5 9 5 7-2 9-5 3-7 3-13zm28 0c0-6 1-11 2-15 1-5 4-8 7-12 3-3 7-6 11-8s9-3 15-3 11 1 15 3 8 4 11 8c3 3 5 7 7 12 1 5 2 10 2 15s-1 10-2 15c-1 4-4 8-7 12-3 3-7 6-11 7-4 2-9 3-15 3s-11-1-15-3-8-4-11-7-5-7-7-12c-1-4-2-9-2-15zm47 0c0-6-1-10-3-13s-5-5-9-5-7 2-9 5-3 7-3 13 1 10 3 13 5 5 9 5 7-2 9-5 3-7 3-13zm31-35c2 0 4-1 6-1h12c2 0 4 0 6 1v70c-2 0-4 1-6 1h-10c-2 0-4 0-6-1v-70zm41 0c2 0 4-1 6-1h13c2 0 4 0 6 1l-17 33 19 37c-2 0-4 1-6 1h-13c-2 0-4 0-5-1l-18-36 16-33z"/><path class="fil1" d="M1338 1774v55c0 6 10 9 16 3 24-25 66-16 92-9v-49c52-14 44-76 7-88-20-6-7-1-19-13-27-27-64-26-87-2-5 5-7 11-15 15-9 3-14 7-19 13-17 17-21 61 26 75zm88-73v26c0 3-3 6-6 6h-1c-3 0-6-3-6-6v-31-1c0-6 7-6 13-11-15-21-57-28-73 1 12 2 21 5 15 17-14 2-21-11-40 0-23 13-17 53 12 58 12 2 35 0 48 0-3-4-7-5-3-12 7-8 11 7 41 11 19 3 31-3 38-15 8-14 3-31-6-40-12-12-22-7-33-4zm-75 118c6-4 12-7 19-10 3-7 1-27 1-35h-19v45zm33-14c6-1 11-2 17-2v-29h-17v31zm30-3c6 0 12 0 18 1v-27c-3-4-1-2-8-4-3 0-7-1-9-1v30z"/></g></g></svg>