<svg display="none" width="0" height="0" version="1.1" xmlns="http://www.w3.org/2000/svg" xmlns:xlink="http://www.w3.org/1999/xlink">
<defs>
<symbol id="icon-keyboard-arrow-up" viewBox="0 0 1024 1024">
	<title>keyboard-arrow-up</title>
	<path class="path1" d="M316.373 657.707l195.627-195.627 195.627 195.627 60.373-60.373-256-256-256 256z"></path>
</symbol>
<symbol id="icon-check" viewBox="0 0 1024 1024">
	<title>check</title>
	<path class="path1" d="M384 689.92l-177.92-177.92-60.373 60.373 238.293 238.293 512-512-60.373-60.373z"></path>
</symbol>
<symbol id="icon-clear" viewBox="0 0 1024 1024">
	<title>clear</title>
	<path class="path1" d="M810.667 273.707l-60.373-60.373-238.293 238.293-238.293-238.293-60.373 60.373 238.293 238.293-238.293 238.293 60.373 60.373 238.293-238.293 238.293 238.293 60.373-60.373-238.293-238.293z"></path>
</symbol>
<symbol id="icon-more-vert" viewBox="0 0 1024 1024">
	<title>more-vert</title>
	<path class="path1" d="M512 341.333c47.147 0 85.333-38.187 85.333-85.333s-38.187-85.333-85.333-85.333-85.333 38.187-85.333 85.333 38.187 85.333 85.333 85.333zM512 426.667c-47.147 0-85.333 38.187-85.333 85.333s38.187 85.333 85.333 85.333 85.333-38.187 85.333-85.333-38.187-85.333-85.333-85.333zM512 682.667c-47.147 0-85.333 38.187-85.333 85.333s38.187 85.333 85.333 85.333 85.333-38.187 85.333-85.333-38.187-85.333-85.333-85.333z"></path>
</symbol>
<symbol id="icon-arrow-back" viewBox="0 0 1024 1024">
	<title>arrow-back</title>
	<path class="path1" d="M853.333 469.333h-519.253l238.293-238.293-60.373-60.373-341.333 341.333 341.333 341.333 60.373-60.373-238.293-238.293h519.253v-85.333z"></path>
</symbol>
<symbol id="icon-hand" viewBox="0 0 1024 1024">
	<title>point-up</title>
	<path class="path1" d="M960 608v-160c0-52.934-43.066-96-96-96-17.104 0-33.176 4.494-47.098 12.368-17.076-26.664-46.958-44.368-80.902-44.368-24.564 0-47.004 9.274-64 24.504-16.996-15.23-39.436-24.504-64-24.504-11.214 0-21.986 1.934-32 5.484v-229.484c0-52.934-43.066-96-96-96s-96 43.066-96 96v394.676l-176.018-93.836c-14.536-8.4-31.126-12.84-47.982-12.84-52.934 0-96 43.066-96 96 0 26.368 10.472 50.954 29.49 69.226 0.248 0.238 0.496 0.47 0.75 0.7l239.17 218.074h-45.41c-17.672 0-32 14.326-32 32v192c0 17.674 14.328 32 32 32h640c17.674 0 32-14.326 32-32v-192c0-17.674-14.326-32-32-32h-44.222l72.844-145.69c2.222-4.442 3.378-9.342 3.378-14.31zM896 864c0 17.674-14.326 32-32 32s-32-14.326-32-32 14.326-32 32-32 32 14.326 32 32zM896 600.446l-83.776 167.554h-383.826l-290.818-265.166c-6.18-6.070-9.58-14.164-9.58-22.834 0-17.644 14.356-32 32-32 5.46 0 10.612 1.31 15.324 3.894 0.53 0.324 1.070 0.632 1.622 0.926l224 119.416c9.92 5.288 21.884 4.986 31.52-0.8 9.638-5.782 15.534-16.196 15.534-27.436v-448c0-17.644 14.356-32 32-32s32 14.356 32 32v320c0 17.672 14.326 32 32 32s32-14.328 32-32c0-17.644 14.356-32 32-32s32 14.356 32 32c0 17.672 14.326 32 32 32s32-14.328 32-32c0-17.644 14.356-32 32-32s32 14.356 32 32v32c0 17.672 14.326 32 32 32s32-14.328 32-32c0-17.644 14.356-32 32-32s32 14.356 32 32v152.446z"></path>
</symbol>
<symbol id="icon-typing" viewBox="0 0 1024 1024">
	<title>typing</title>
	<path class="path1" d="M819.2 204.8h-614.4c-56.371 0-102.4 46.080-102.4 102.4v358.4c0 56.32 46.029 102.4 102.4 102.4h204.8l204.8 153.6v-153.6h204.8c56.32 0 102.4-46.080 102.4-102.4v-358.4c0-56.32-46.080-102.4-102.4-102.4zM307.2 542.72c-31.078 0-56.32-25.19-56.32-56.32s25.19-56.32 56.32-56.32 56.32 25.19 56.32 56.32c0 31.078-25.242 56.32-56.32 56.32zM512 542.72c-31.078 0-56.32-25.19-56.32-56.32s25.19-56.32 56.32-56.32 56.32 25.19 56.32 56.32c0 31.078-25.242 56.32-56.32 56.32zM716.8 542.72c-31.078 0-56.32-25.19-56.32-56.32s25.19-56.32 56.32-56.32 56.32 25.19 56.32 56.32c0 31.078-25.242 56.32-56.32 56.32z"></path>
</symbol>
<symbol id="icon-files" viewBox="0 0 1024 1024">
	<title>files</title>
	<path class="path1" d="M213.333 0v128h-128v896h725.333v-128h128v-896h-725.333zM725.333 938.667h-554.667v-725.333h42.667v682.667h512v42.667zM853.333 810.667h-554.667v-725.333h554.667v725.333zM640 213.333h-256v85.333h256v-85.333zM768 341.333h-384v42.667h384v-42.667zM768 426.667h-384v42.667h384v-42.667zM768 512h-384v42.667h384v-42.667zM512 597.333h-128v42.667h128v-42.667z"></path>
</symbol>
<symbol id="icon-postings" width="100" height="100" viewBox="0 0 100 100">
	<g transform="matrix(.157 0 0 .148 -6.022 -15.559)"><path d="M656.857 456.648a295.714 295.714 0 1 1-591.428 0 295.714 295.714 0 1 1 591.427 0z" fill="none" stroke="#4c3a30" stroke-width="10"/><path d="M638.113 456.38a278.398 274.986 0 1 1-556.797 0 278.398 274.986 0 1 1 556.797 0z" fill="#4c3a30"/><rect transform="matrix(.779 -.627 .733 .681 0 0)" y="524.726" x="-221.694" ry="0" height="111.587" width="356.516" fill="#e7dfcc"/><path style="fill:#e7dfcc;stroke:none" d="M 202.85714,506.6479 280,580.93361 174.28571,595.21933 z" /></g>
</symbol>
<symbol id="icon-cc-stripe" viewBox="0 0 1317 1024">
	<title>cc-stripe</title>
	<path class="path1" d="M912.571 516q0 39.429-12 60.571-10.857 20-29.714 20-13.143 0-23.429-5.143v-128q16.571-17.143 32.571-17.143 32.571 0 32.571 69.714zM1162.857 495.429h-62.857q3.429-56 32-56 29.143 0 30.857 56zM272 572.571q0-33.714-18.857-52.286t-57.714-32.857q-20.571-7.429-29.714-13.714t-9.143-14.286q0-14.857 21.714-14.857 33.143 0 70.857 18.857l10.286-64q-38.286-18.286-85.143-18.286-44 0-70.286 21.714-27.429 22.286-27.429 62.286 0 33.143 18.571 51.714t56.857 32.286q22.286 8 31.143 14.571t8.857 15.714q0 17.714-27.429 17.714-16.571 0-40-7.143t-41.143-17.429l-10.286 64.571q41.143 23.429 96 23.429 46.286 0 73.714-21.143 29.143-23.429 29.143-66.857zM440.571 449.714l10.857-63.429h-54.857v-77.143l-73.714 12-10.286 65.143-26.286 4.571-9.714 58.857h35.429v125.143q0 48 25.143 68.571 21.714 17.143 63.429 17.143 18.286 0 45.143-6.286v-67.429q-18.286 4-25.143 4-24 0-24-28.571v-112.571h44zM621.143 464v-79.429q-8.571-1.714-16-1.714-18.286 0-31.714 9.143t-19.143 26.286l-5.714-32h-74.857v269.143h85.714v-174.857q14.857-17.714 46.857-17.714 9.143 0 14.857 1.143zM642.286 655.429h85.714v-269.143h-85.714v269.143zM997.714 513.143q0-69.714-25.714-102.286-22.857-29.714-63.429-29.714-36.571 0-66.857 32l-4.571-26.857h-75.429v368.571l85.714-14.286v-86.286q20.571 6.286 38.857 6.286 47.429 0 76.571-32 34.857-37.143 34.857-115.429zM730.286 314.286q0-18.857-13.143-32t-32-13.143-32 13.143-13.143 32 13.143 32.286 32 13.429 32-13.429 13.143-32.286zM1243.429 518.286q0-64.571-27.429-100.571-28.571-36.571-82.286-36.571-54.857 0-86.571 37.714t-31.714 102.857q0 73.143 36 107.429 31.429 31.429 92 31.429 57.714 0 91.429-22.857l-9.143-58.857q-32.571 17.714-73.143 17.714-24.571 0-36-10.857-13.143-10.857-16-37.714h141.714q1.143-8 1.143-29.714zM1316.571 146.286v731.429q0 29.714-21.714 51.429t-51.429 21.714h-1170.286q-29.714 0-51.429-21.714t-21.714-51.429v-731.429q0-29.714 21.714-51.429t51.429-21.714h1170.286q29.714 0 51.429 21.714t21.714 51.429z"></path>
</symbol>
<symbol id="icon-cc-paypal" viewBox="0 0 1317 1024">
	<title>cc-paypal</title>
	<path class="path1" d="M184 484h-8.571q-10.857 0-10.857-10.286 0-16 10.857-48.571 2.857-8.571 8.571-11.143t16-2.571q44 0 44 28 0 23.429-17.429 34t-42.571 10.571zM379.429 576q-26.857 0-26.857-16.571 0-35.429 70.286-35.429l1.714 1.714q-2.857 50.286-45.143 50.286zM821.714 485.143h-8.571q-10.857 0-10.857-10.857 0-16 10.857-48.571 2.857-8.571 8.286-10.857t16.286-2.286q44 0 44 28 0 23.429-17.429 34t-42.571 10.571zM1017.143 576.571q-26.857 0-26.857-17.143 0-35.429 70.286-35.429l1.714 1.714q-2.857 50.857-45.143 50.857zM213.143 366.857h-73.143q-4.571 0-8.286 2.286t-4.857 4.286-4 7.143q-1.714 4-25.714 108.571t-24 109.714q0 4 3.143 7.143t7.714 3.143h35.429q14.286 0 18.571-19.714l8.571-39.429t18.571-19.714q26.857 0 50-4.286t46-14 36.286-30 13.429-48.286q0-20.571-8.286-34.857t-23.429-20.857-30.571-8.857-35.429-2.286zM410.857 421.714q-21.714 0-42.286 3.429-1.143 0-4.857 0.571t-5.143 0.857l-4.286 0.857t-4.286 1.143-3.714 1.714-3.714 2.286-2.857 2.857-2.571 4-2.286 5.143q-5.143 16.571-5.143 22.286t5.143 5.714q2.857 0 12.286-2.857t11.143-3.429q17.143-4.571 33.143-4.571 42.286 0 42.286 20.571 0 6.286-5.714 8-4.571 1.143-10.286 1.714t-12.286 0.857-10 0.857q-21.714 2.286-36.857 5.714t-32.286 11.143-26 22.286-8.857 35.714q0 21.714 14.857 34t36.571 12.286q13.714 0 26-3.714t18.857-7.429 22-13.429q-1.714 4-1.714 8.571t3.143 7.714 7.143 3.143h32q0.571-0.571 4-2t4.286-2 2.857-2 2.857-3.143 1.429-4.571l25.714-110.857q2.286-7.429 2.286-17.143 0-46.286-82.857-46.286zM712.571 424.571h-42.286q-12.571 0-22.286 13.143-2.857 4-16.857 29.143t-26.571 46.571-14.857 22l-2.857-2.286q0-44-15.429-94.857-0.571-2.857-2-4.857t-3.429-3.714-3.714-2.857-4.857-1.714-4.857-0.857-5.429-0.571-5.143-0.286h-10.571q-21.714 0-21.714 12l0.571 2.857q2.857 30.286 14.286 86.286t14.286 81.714q1.143 9.143 1.143 13.714 0 10.857-17.429 35.143t-17.429 33.429q0 7.429 22.857 7.429 34.857 0 43.429-14.286l140-237.143q5.714-11.429 5.714-14.857 0-5.143-4.571-5.143zM850.857 368h-73.714q-10.286 0-16.571 13.143-3.429 7.429-26.571 109.429t-23.143 108.857q0 11.429 24.571 11.429h14.571t5.429-0.571 4.857-1.143 4.857-1.714 3.714-2.571 3.143-3.429 1.714-4.857l12-52q1.143-5.714 6-9.714t11.143-4q26.857 0 50-4t46-14 36.286-30 13.429-48q0-20.571-8.286-34.857t-23.429-20.857-30.571-8.857-35.429-2.286zM1048.571 421.714q-14.857 0-42.286 3.429-21.714 3.429-27.429 9.143-4 4.571-6.286 10.857-4.571 13.714-4.571 22.286 0 5.714 4.571 5.714 0.571 0 23.429-6.857 17.143-4.571 33.143-4.571 42.286 0 42.286 20.571 0 6.857-5.714 8-2.286 0.571-32.571 4-21.714 2.286-36.857 5.714t-32.286 11.143-26 22.286-8.857 35.714 14.857 33.429 36.571 12.286q13.714 0 25.714-3.429t19.429-7.429 21.714-13.714q-1.714 8.571-1.714 9.143 0 2.857 1.143 4.857t3.714 3.143 4.571 2 6 1.143 5.429 0.286h10q24 0 27.429-14.286l25.714-110.857q1.714-8.571 1.714-17.714 0-46.286-82.857-46.286zM1232.571 369.714h-31.429q-14.286 0-18.857 22.857-5.714 25.143-20.857 95.429t-24.286 108.571v2.857q0 9.143 9.143 10.286h33.143q5.714 0 10.571-3.714t6-9.429l47.429-213.714h-0.571l0.571-2.857q0-4-3.143-7.143t-7.714-3.143zM1316.571 146.286v731.429q0 29.714-21.714 51.429t-51.429 21.714h-1170.286q-29.714 0-51.429-21.714t-21.714-51.429v-731.429q0-29.714 21.714-51.429t51.429-21.714h1170.286q29.714 0 51.429 21.714t21.714 51.429z"></path>
</symbol>
<symbol id="icon-cc-visa" viewBox="0 0 1317 1024">
	<title>cc-visa</title>
	<path class="path1" d="M1128.571 565.714h-78.857q8-21.143 37.714-102.286l1.714-5.143q2.286-5.714 5.714-14.857t5.143-14.857l6.857 31.429zM303.429 528.571l-33.143-168.571q-6.286-30.857-42.857-30.857h-153.143l-1.143 7.429q177.714 45.143 230.286 192zM405.714 329.143l-92.571 250.286-9.714-50.857q-14.857-40-48.571-74t-74.857-50.571l77.143 291.429h100l149.143-366.286h-100.571zM485.143 696h94.857l59.429-366.857h-94.857zM924 338.286q-39.429-15.429-85.143-15.429-70.286 0-114.857 33.714t-45.143 87.429q-0.571 58.286 82.857 99.429 27.429 13.143 38.286 23.429t10.857 22.286q0 17.143-17.143 26.286t-39.429 9.143q-49.143 0-89.143-18.857l-12.571-6.286-13.143 82.286q42.286 19.429 105.714 19.429 74.286 0.571 119.143-33.714t46-91.429q0-60.571-80-99.429-28-14.286-40.571-24t-12.571-21.714q0-12.571 14-22t40.286-9.429q40-0.571 70.857 13.714l8.571 4.571zM1166.857 329.143h-73.143q-37.143 0-49.714 30.857l-140.571 336h99.429l20-54.857h121.143q2.857 12.571 11.429 54.857h88zM1316.571 146.286v731.429q0 29.714-21.714 51.429t-51.429 21.714h-1170.286q-29.714 0-51.429-21.714t-21.714-51.429v-731.429q0-29.714 21.714-51.429t51.429-21.714h1170.286q29.714 0 51.429 21.714t21.714 51.429z"></path>
</symbol>
<symbol id="icon-cc-mastercard" viewBox="0 0 1317 1024">
	<title>cc-mastercard</title>
	<path class="path1" d="M383.429 533.143h-7.429q-26.857 0-26.857 18.286 0 12.571 11.429 12.571 9.714 0 16-8.571t6.857-22.286zM609.143 512.571h35.429v-1.714q0.571-2.286 0.286-3.714t-0.571-4-1.143-4.571-2.571-3.714-4.286-2.857-6.571-1.143q-16 0-20.571 21.714zM917.714 533.143h-6.857q-27.429 0-27.429 18.286 0 12.571 11.429 12.571 9.714 0 16-8.571t6.857-22.286zM1100 518.286q0-23.429-17.143-23.429-10.857 0-17.714 11.429t-6.857 29.143q0 24 16 24 11.429 0 18.571-11.429t7.143-29.714zM274.286 437.714h49.714l-25.143 149.714h-32l18.286-114.857-40.571 114.857h-22.286l-2.286-114.286-19.429 114.286h-30.286l25.143-149.714h46.286l1.143 93.143zM418.857 498.857q0 3.429-2.286 24-9.143 57.714-9.714 64.571h-26.857l0.571-12.571q-11.429 14.857-33.143 14.857-13.143 0-21.429-9.143t-8.286-24q0-22.286 14.857-34.571t41.714-12.286q8 0 13.143 0.571 0-1.714 0.286-3.143t0.571-2.571 0.286-1.714q0-11.429-20.571-11.429-16.571 0-33.714 5.714 0-2.286 4-27.429 21.714-6.286 38.286-6.286 42.286 0 42.286 35.429zM508 465.714l-4.571 28q-12.571-1.714-23.429-1.714-15.429 0-15.429 9.714 0 4.571 2.571 6.857t12.286 6.286q22.857 10.857 22.857 34.286 0 41.143-49.714 40.571-19.429 0-33.143-3.429 0-1.143 4-28 16.571 4.571 29.143 4.571 18.286 0 18.286-10.857 0-4-2.571-6.571t-12.286-7.143q-24.571-11.429-24.571-33.714 0-41.143 48-41.143 17.143 0 28.571 2.286zM558.286 465.714h16l-4 29.714h-16.571q-1.143 9.714-3.714 23.143t-4 22-1.429 10.286q0 9.143 10.857 9.143 4.571 0 9.143-1.143l-4.571 26.857q-12 4-22.857 4-24.571 0-25.714-26.857 0-6.857 4.571-32 1.714-11.429 14.286-83.429h31.429zM674.286 507.429q0 13.143-4 29.714h-63.429q-1.714 12.571 5.714 18.857t21.714 6.286q17.143 0 33.143-8l-5.143 30.857q-17.143 4.571-32.571 4.571-54.286 0-54.286-54.286 0-31.429 15.714-51.714t39.714-20.286q20 0 31.714 12t11.714 32zM753.714 465.143q-7.429 13.143-12.571 35.429-12.571-1.143-17.714 13.714t-14.286 73.143h-32l1.714-8q12.571-74.286 16.571-113.714h29.143l-1.714 18.857q8-12 14.571-16.857t16.286-2.571zM860.571 441.714l-5.143 32.571q-16-8-28.571-8-17.714 0-29.143 15.714t-11.429 40.286q0 17.143 7.714 26.857t22 9.714q12 0 27.429-7.429l-5.714 33.714q-16 4.571-28.571 4.571-25.714 0-40.857-17.429t-15.143-47.143q0-40 20.286-65.429t52.286-25.429q14.857 0 34.857 7.429zM953.143 498.857q0 10.286-2.286 24-7.429 45.143-9.714 64.571h-26.286l0.571-12.571q-11.429 14.857-33.714 14.857-13.143 0-21.143-9.143t-8-24q0-22.286 14.571-34.571t41.429-12.286q8.571 0 13.143 0.571 1.143-4 1.143-7.429 0-11.429-20.571-11.429-16.571 0-33.714 5.714 0-2.286 4.571-27.429 21.714-6.286 38.286-6.286 41.714 0 41.714 35.429zM1033.714 465.143q-8 13.714-12 35.429-13.143-1.143-18 13.143t-14.571 73.714h-32l1.714-8q10.857-59.429 16.571-113.714h29.714q0 6.286-2.286 18.857 8.571-12 15.143-16.857t15.714-2.571zM1114.286 437.714h32l-24.571 149.714h-30.286l1.714-10.857q-13.143 13.143-29.714 13.143-17.714 0-28.286-13.714t-10.571-36.571q0-30.286 15.714-52.571t36.857-22.286q17.714 0 30.286 16.571zM1177.714 512q0-84.571-41.429-156t-113.143-113.143-156.286-41.714q-103.429 0-187.429 62.857 72.571 66.286 97.714 162.286h-28.571q-25.143-85.714-90.286-144.571-65.143 58.857-90.286 144.571h-28.571q25.143-96 97.714-162.286-84-62.857-187.429-62.857-84.571 0-156.286 41.714t-113.143 113.143-41.429 156 41.429 156 113.143 113.143 156.286 41.714q103.429 0 187.429-62.857-68.571-63.429-94.286-150.857h28.571q26.286 78.857 86.857 133.143 60.571-54.286 86.857-133.143h28.571q-25.714 87.429-94.286 150.857 84 62.857 187.429 62.857 84.571 0 156.286-41.714t113.143-113.143 41.429-156zM1316.571 146.286v731.429q0 29.714-21.714 51.429t-51.429 21.714h-1170.286q-29.714 0-51.429-21.714t-21.714-51.429v-731.429q0-29.714 21.714-51.429t51.429-21.714h1170.286q29.714 0 51.429 21.714t21.714 51.429z"></path>
</symbol>
<symbol id="icon-phone" viewBox="0 0 1024 1024">
	<title>phone</title>
	<path class="path1" d="M704 640c-64 64-64 128-128 128s-128-64-192-128-128-128-128-192 64-64 128-128-128-256-192-256-192 192-192 192c0 128 131.5 387.5 256 512s384 256 512 256c0 0 192-128 192-192s-192-256-256-192z"></path>
</symbol>
<symbol id="icon-phone-hang-up" viewBox="0 0 1024 1024">
	<title>phone-hang-up</title>
	<path class="path1" d="M1017.378 575.994c8.004 55.482 13.216 131.392-11.664 160.446-41.142 48.044-301.712 48.044-301.712-48.042 0-48.398 42.856-80.134 1.712-128.178-40.472-47.262-113.026-48.030-193.714-48.042-80.686 0.012-153.242 0.78-193.714 48.042-41.142 48.046 1.714 79.78 1.714 128.178 0 96.086-260.57 96.086-301.714 48.044-24.878-29.054-19.668-104.964-11.662-160.446 6.16-37.038 21.724-76.996 71.548-127.994 0-0.002 0.002-0.002 0.002-0.004 74.738-69.742 187.846-126.738 429.826-127.968v-0.030c1.344 0 2.664 0.010 4 0.014 1.338-0.004 2.656-0.014 4-0.014v0.028c241.98 1.23 355.088 58.226 429.826 127.968 0.002 0.002 0.002 0.004 0.002 0.004 49.824 50.996 65.39 90.954 71.55 127.994z"></path>
</symbol>
<symbol id="icon-address-book" viewBox="0 0 1024 1024">
	<title>address-book</title>
	<path class="path1" d="M192 0v1024h768v-1024h-768zM576 256.33c70.51 0 127.67 57.16 127.67 127.67s-57.16 127.67-127.67 127.67-127.67-57.16-127.67-127.67 57.16-127.67 127.67-127.67v0zM768 768h-384v-64c0-70.696 57.306-128 128-128v0h128c70.696 0 128 57.304 128 128v64z"></path>
	<path class="path2" d="M64 64h96v192h-96v-192z"></path>
	<path class="path3" d="M64 320h96v192h-96v-192z"></path>
	<path class="path4" d="M64 576h96v192h-96v-192z"></path>
	<path class="path5" d="M64 832h96v192h-96v-192z"></path>
</symbol>
<symbol id="icon-envelop" viewBox="0 0 1024 1024">
	<title>envelop</title>
	<path class="path1" d="M928 128h-832c-52.8 0-96 43.2-96 96v640c0 52.8 43.2 96 96 96h832c52.8 0 96-43.2 96-96v-640c0-52.8-43.2-96-96-96zM398.74 550.372l-270.74 210.892v-501.642l270.74 290.75zM176.38 256h671.24l-335.62 252-335.62-252zM409.288 561.698l102.712 110.302 102.71-110.302 210.554 270.302h-626.528l210.552-270.302zM625.26 550.372l270.74-290.75v501.642l-270.74-210.892z"></path>
</symbol>
<symbol id="icon-menu" viewBox="0 0 1024 1024">
	<title>menu</title>
	<path class="path1" d="M839.68 460.8h-655.36c-28.262 0-30.72 22.886-30.72 51.2s2.458 51.2 30.72 51.2h655.36c28.262 0 30.72-22.886 30.72-51.2s-2.458-51.2-30.72-51.2zM839.68 665.6h-655.36c-28.262 0-30.72 22.886-30.72 51.2s2.458 51.2 30.72 51.2h655.36c28.262 0 30.72-22.886 30.72-51.2s-2.458-51.2-30.72-51.2zM184.32 358.4h655.36c28.262 0 30.72-22.886 30.72-51.2s-2.458-51.2-30.72-51.2h-655.36c-28.262 0-30.72 22.886-30.72 51.2s2.458 51.2 30.72 51.2z"></path>
</symbol>
<symbol id="icon-mail" viewBox="0 0 1024 1024">
	<title>mail</title>
	<path class="path1" d="M853.31 0h-682.62c-93.88 0-170.69 76.784-170.69 170.658v682.656c0 93.876 76.81 170.686 170.69 170.686h682.622c93.938 0 170.688-76.81 170.688-170.686v-682.656c0-93.874-76.75-170.658-170.69-170.658zM256 256h512c9.138 0 18.004 1.962 26.144 5.662l-282.144 329.168-282.144-329.17c8.14-3.696 17.006-5.66 26.144-5.66zM192 704v-384c0-1.34 0.056-2.672 0.14-4l187.664 218.94-185.598 185.6c-1.444-5.338-2.206-10.886-2.206-16.54zM768 768h-512c-5.654 0-11.202-0.762-16.54-2.206l182.118-182.118 90.422 105.496 90.424-105.494 182.116 182.118c-5.34 1.442-10.886 2.204-16.54 2.204zM832 704c0 5.654-0.762 11.2-2.206 16.54l-185.598-185.598 187.664-218.942c0.084 1.328 0.14 2.66 0.14 4v384z"></path>
</symbol>
<symbol id="icon-mail2" viewBox="0 0 1024 1024">
	<title>mail2</title>
	<path class="path1" d="M853.342 0h-682.656c-93.874 0-170.686 76.81-170.686 170.69v682.622c0 93.938 76.812 170.688 170.686 170.688h682.656c93.876 0 170.658-76.75 170.658-170.69v-682.62c0-93.88-76.782-170.69-170.658-170.69zM853.342 128c7.988 0 15.546 2.334 22.020 6.342l-363.362 300.404-363.354-300.4c6.478-4.010 14.044-6.346 22.040-6.346h682.656zM170.686 896c-1.924 0-3.82-0.146-5.684-0.408l225.626-312.966-29.256-29.254-233.372 233.37v-611.138l384 464.396 384-464.394v611.136l-233.372-233.37-29.254 29.254 225.628 312.968c-1.858 0.26-3.746 0.406-5.662 0.406h-682.654z"></path>
</symbol>
<symbol id="icon-mail3" viewBox="0 0 1024 1024">
	<title>mail3</title>
	<path class="path1" d="M853.342 0h-682.656c-93.874 0-170.686 76.81-170.686 170.69v682.622c0 93.938 76.812 170.688 170.686 170.688h682.656c93.876 0 170.658-76.75 170.658-170.69v-682.62c0-93.88-76.782-170.69-170.658-170.69zM182.628 886.626l-77.256-77.254 256-256 29.256 29.254-208 304zM153.372 198.628l29.256-29.256 329.372 265.374 329.374-265.374 29.254 29.256-358.628 422.626-358.628-422.626zM841.374 886.626l-208-304 29.254-29.254 256 256-77.254 77.254z"></path>
</symbol>
<symbol id="icon-mail4" viewBox="0 0 1024 1024">
	<title>mail4</title>
	<path class="path1" d="M512 0c-282.77 0-512 229.23-512 512s229.23 512 512 512 512-229.23 512-512-229.23-512-512-512zM256 256h512c9.138 0 18.004 1.962 26.144 5.662l-282.144 329.168-282.144-329.17c8.14-3.696 17.006-5.66 26.144-5.66zM192 704v-384c0-1.34 0.056-2.672 0.14-4l187.664 218.942-185.598 185.598c-1.444-5.336-2.206-10.886-2.206-16.54zM768 768h-512c-5.654 0-11.202-0.762-16.54-2.208l182.118-182.118 90.422 105.498 90.424-105.494 182.116 182.12c-5.34 1.44-10.886 2.202-16.54 2.202zM832 704c0 5.654-0.762 11.2-2.206 16.54l-185.6-185.598 187.666-218.942c0.084 1.328 0.14 2.66 0.14 4v384z"></path>
</symbol>
<symbol id="icon-google-plus" viewBox="0 0 1024 1024">
	<title>google-plus</title>
	<path class="path1" d="M559.066 64c0 0-200.956 0-267.94 0-120.12 0-233.17 91.006-233.17 196.422 0 107.726 81.882 194.666 204.088 194.666 8.498 0 16.756-0.17 24.842-0.752-7.93 15.186-13.602 32.288-13.602 50.042 0 29.938 16.104 54.21 36.468 74.024-15.386 0-30.242 0.448-46.452 0.448-148.782-0.002-263.3 94.758-263.3 193.020 0 96.778 125.542 157.314 274.334 157.314 169.624 0 263.306-96.244 263.306-193.028 0-77.6-22.896-124.072-93.686-174.134-24.216-17.144-70.53-58.836-70.53-83.344 0-28.72 8.196-42.868 51.428-76.646 44.312-34.624 75.672-83.302 75.672-139.916 0-67.406-30.020-133.098-86.372-154.772h84.954l59.96-43.344zM465.48 719.458c2.126 8.972 3.284 18.206 3.284 27.628 0 78.2-50.392 139.31-194.974 139.31-102.842 0-177.116-65.104-177.116-143.3 0-76.642 92.126-140.444 194.964-139.332 24 0.254 46.368 4.116 66.67 10.69 55.826 38.826 95.876 60.762 107.172 105.004zM300.818 427.776c-69.038-2.064-134.636-77.226-146.552-167.86-11.916-90.666 34.37-160.042 103.388-157.99 69.010 2.074 134.638 74.814 146.558 165.458 11.906 90.66-34.39 162.458-103.394 160.392zM832 256v-192h-64v192h-192v64h192v192h64v-192h192v-64z"></path>
</symbol>
<symbol id="icon-facebook" viewBox="0 0 1024 1024">
	<title>facebook</title>
	<path class="path1" d="M672 192c-88.366 0-160 71.634-160 160v96h-128v128h128v448h128v-448h144l32-128h-176v-96c0-17.672 14.326-32 32-32h160v-128h-160z"></path>
</symbol>
<symbol id="icon-instagram" viewBox="0 0 1024 1024">
	<title>instagram</title>
	<path class="path1" d="M854 0h-684c-93.5 0-170 76.5-170 170v684c0 93.5 76.5 170 170 170h684c93.5 0 170-76.5 170-170v-684c0-93.5-76.5-170-170-170zM327.8 448h368.4c6.988 20.058 10.8 41.59 10.8 64 0 107.524-87.476 195-195 195s-195-87.476-195-195c0-22.41 3.812-43.942 10.8-64zM896 448.050v383.95c0 35.2-28.8 64-64 64h-640c-35.2 0-64-28.8-64-64v-384h100.108c-4.642 20.602-7.108 42.016-7.108 64 0 160.458 130.542 291 291 291s291-130.542 291-291c0-21.984-2.464-43.398-7.108-64l100.108 0.050zM896 224c0 17.6-14.4 32-32 32h-64c-17.6 0-32-14.4-32-32v-64c0-17.6 14.4-32 32-32h64c17.6 0 32 14.4 32 32v64z"></path>
</symbol>
<symbol id="icon-twitter" viewBox="0 0 1024 1024">
	<title>twitter</title>
	<path class="path1" d="M1024 194.418c-37.676 16.708-78.164 28.002-120.66 33.080 43.372-26 76.686-67.17 92.372-116.23-40.596 24.078-85.556 41.56-133.41 50.98-38.32-40.83-92.922-66.34-153.346-66.34-116.022 0-210.088 94.058-210.088 210.078 0 16.466 1.858 32.5 5.44 47.878-174.6-8.764-329.402-92.4-433.018-219.506-18.084 31.028-28.446 67.116-28.446 105.618 0 72.888 37.088 137.192 93.46 174.866-34.438-1.092-66.832-10.542-95.154-26.278-0.020 0.876-0.020 1.756-0.020 2.642 0 101.788 72.418 186.696 168.522 206-17.626 4.8-36.188 7.372-55.348 7.372-13.538 0-26.698-1.32-39.528-3.772 26.736 83.46 104.32 144.206 196.252 145.896-71.9 56.35-162.486 89.934-260.916 89.934-16.958 0-33.68-0.994-50.116-2.94 92.972 59.61 203.402 94.394 322.042 94.394 386.422 0 597.736-320.124 597.736-597.744 0-9.108-0.206-18.168-0.61-27.18 41.056-29.62 76.672-66.62 104.836-108.748z"></path>
</symbol>
<symbol id="icon-youtube3" viewBox="0 0 1024 1024">
	<title>youtube3</title>
	<path class="path1" d="M293.188 0l-69.188 137.234-69.188-137.234h-88.248l124.71 217.314 0.726-0.43v167.116h64v-167.116l0.726 0.43 124.71-217.314z"></path>
	<path class="path2" d="M480 128c17.346 0 32 14.654 32 32v128c0 17.346-14.654 32-32 32s-32-14.654-32-32v-128c0-17.346 14.654-32 32-32zM480 64c-52.8 0-96 43.2-96 96v128c0 52.8 43.2 96 96 96s96-43.2 96-96v-128c0-52.8-43.2-96-96-96v0z"></path>
	<path class="path3" d="M768 64v251.968c-27.922 23.288-64 37.332-64-45.634v-206.334h-64v219.324h0.096c0.986 52.91 12.142 148.168 127.904 70.712v29.964h64v-320h-64z"></path>
	<path class="path4" d="M864 704c-17.644 0-32 14.356-32 32v32h64v-32c0-17.644-14.356-32-32-32z"></path>
	<path class="path5" d="M576 736v168c21.666 21.666 64 24 64-8s0-118 0-150-32-42-64-10z"></path>
	<path class="path6" d="M1018.766 581.54c-2.792-36.862-16.046-66.942-39.778-90.244-23.726-23.298-54.080-35.994-91.068-38.080-69.784-3.478-229.452-5.216-369.716-5.216-140.266 0-311.294 1.738-381.078 5.216-36.986 2.086-67.342 14.782-91.068 38.080-23.728 23.302-36.988 53.382-39.778 90.244-4.188 75.116-6.28 102.352-6.28 139.91 0 37.56 2.092 93.894 6.28 169.012 2.792 36.862 16.050 66.944 39.778 90.244 23.726 23.298 54.082 35.992 91.068 38.080 69.782 3.476 240.81 5.214 381.078 5.214 140.266 0 299.934-1.738 369.716-5.214 36.988-2.088 67.342-14.782 91.068-38.080 23.73-23.3 36.986-53.382 39.778-90.244 3.49-62.598 5.234-118.934 5.234-169.012 0-50.076-1.744-77.314-5.234-139.91zM192 960h-64v-320h-64v-64h192v64h-64v320zM448 960h-64v-29.962c-121.666 68.294-126.918 2.198-127.904-50.712h-0.096v-175.326h64v176.334c0 38.666 36.078 34.924 64 11.634v-187.968h64v256zM704 895.086c0 66.892-68.504 86.402-128 34.39v30.524h-64v-384h64v104c64-64 128-40 128 24s0 121.172 0 191.086zM960 768v32h-128v64c0 17.644 14.356 32 32 32s32-14.356 32-32v-32h64v32c0 52.934-43.066 96-96 96s-96-43.066-96-96v-128c0-52.934 43.066-96 96-96s96 43.066 96 96v32z"></path>
</symbol>
<symbol id="icon-linkedin2" viewBox="0 0 1024 1024">
	<title>linkedin2</title>
	<path class="path1" d="M384 384h177.106v90.782h2.532c24.64-44.194 84.958-90.782 174.842-90.782 186.946 0 221.52 116.376 221.52 267.734v308.266h-184.61v-273.278c0-65.184-1.334-149.026-96.028-149.026-96.148 0-110.82 70.986-110.82 144.292v278.012h-184.542v-576z"></path>
	<path class="path2" d="M64 384h192v576h-192v-576z"></path>
	<path class="path3" d="M256 224c0 53.019-42.981 96-96 96s-96-42.981-96-96c0-53.019 42.981-96 96-96s96 42.981 96 96z"></path>
</symbol>
<symbol id="icon-pinterest" viewBox="0 0 1024 1024">
	<title>pinterest</title>
	<path class="path1" d="M512.006 0.002c-282.774 0-512.006 229.23-512.006 511.996 0 216.906 134.952 402.166 325.414 476.772-4.478-40.508-8.518-102.644 1.774-146.876 9.298-39.954 60.040-254.5 60.040-254.5s-15.32-30.664-15.32-76.008c0-71.19 41.268-124.336 92.644-124.336 43.68 0 64.784 32.794 64.784 72.12 0 43.928-27.964 109.604-42.404 170.464-12.060 50.972 25.556 92.536 75.814 92.536 91.008 0 160.958-95.96 160.958-234.466 0-122.584-88.088-208.298-213.868-208.298-145.678 0-231.186 109.274-231.186 222.19 0 44.008 16.95 91.196 38.102 116.844 4.182 5.070 4.792 9.516 3.548 14.68-3.884 16.18-12.522 50.96-14.216 58.076-2.234 9.368-7.422 11.356-17.124 6.842-63.95-29.77-103.926-123.264-103.926-198.348 0-161.51 117.348-309.834 338.294-309.834 177.61 0 315.634 126.56 315.634 295.704 0 176.458-111.256 318.466-265.676 318.466-51.886 0-100.652-26.958-117.35-58.796 0 0-25.672 97.766-31.894 121.71-11.564 44.468-42.768 100.218-63.642 134.226 47.91 14.832 98.818 22.832 151.604 22.832 282.768-0.002 511.996-229.23 511.996-512 0-282.766-229.228-511.996-511.994-511.996z"></path>
</symbol>
</defs>
</svg>
